<?xml version="1.0" standalone="no"?>
<!DOCTYPE svg PUBLIC "-//W3C//DTD SVG 20010904//EN"
 "http://www.w3.org/TR/2001/REC-SVG-20010904/DTD/svg10.dtd">
<svg version="1.0" xmlns="http://www.w3.org/2000/svg"
 width="1200.000000pt" height="1200.000000pt" viewBox="0 0 1200.000000 1200.000000"
 preserveAspectRatio="xMidYMid meet">
<metadata>
Created by potrace 1.14, written by Peter Selinger 2001-2017
</metadata>
<g transform="translate(0.000000,1200.000000) scale(0.100000,-0.100000)"
fill="#000000" stroke="none">
<path d="M3279 10889 c-114 -7 -226 -16 -271 -24 -13 -2 -66 -11 -118 -20
-271 -47 -596 -159 -820 -284 -30 -17 -66 -36 -80 -43 -14 -7 -70 -43 -125
-79 -562 -370 -962 -936 -1131 -1599 -16 -65 -54 -260 -59 -305 -4 -31 -8 -64
-10 -73 -22 -120 -23 -616 0 -875 12 -130 16 -179 26 -257 5 -47 12 -97 14
-111 3 -14 7 -41 9 -60 22 -162 85 -439 137 -608 25 -80 77 -228 89 -256 5
-11 26 -60 46 -110 96 -236 290 -579 448 -791 17 -23 40 -55 51 -70 65 -90
244 -306 360 -434 141 -154 459 -474 629 -631 38 -35 81 -75 96 -89 14 -14 91
-83 170 -155 80 -71 150 -134 156 -140 24 -21 84 -74 199 -175 66 -57 122
-107 125 -110 3 -3 55 -48 115 -100 61 -52 112 -97 115 -100 3 -3 32 -27 65
-55 33 -27 62 -52 65 -56 3 -3 111 -97 240 -209 129 -111 240 -208 245 -214 6
-6 24 -22 40 -35 17 -12 46 -37 65 -54 19 -18 69 -61 110 -96 41 -35 82 -71
90 -80 8 -9 31 -29 50 -45 19 -16 69 -59 110 -96 41 -37 91 -80 110 -96 19
-16 42 -36 50 -44 8 -8 78 -71 155 -140 131 -116 175 -156 229 -205 12 -11 61
-55 108 -98 158 -143 189 -172 378 -347 121 -112 218 -203 368 -345 l72 -69
52 50 c28 27 63 60 77 74 52 49 277 259 306 286 32 29 224 206 259 239 12 11
66 60 121 110 55 49 102 92 105 95 3 3 68 61 145 130 77 68 156 139 175 157
19 17 44 40 56 50 12 10 54 47 95 83 40 36 98 87 129 114 30 27 73 65 96 85
22 20 69 61 104 91 35 30 68 60 74 65 6 6 76 66 156 134 80 68 150 129 155
135 6 6 39 36 75 66 36 30 67 57 70 60 3 3 34 30 70 60 36 30 69 60 75 66 5 6
78 69 160 139 83 71 152 132 155 135 3 3 39 34 80 70 124 107 128 111 325 286
105 92 215 191 245 220 30 29 66 62 80 74 136 116 581 558 720 716 153 172
214 247 378 459 5 6 31 44 60 85 28 41 55 80 59 85 9 10 71 107 88 136 122
205 205 370 275 539 23 58 46 114 51 125 96 223 214 734 244 1055 3 36 8 76
10 90 2 14 6 68 9 120 4 52 9 134 11 181 13 196 7 602 -9 686 -3 11 -7 44 -11
74 -37 310 -167 699 -332 994 -42 74 -144 230 -154 233 -5 2 -9 9 -9 16 0 6
-12 26 -27 43 -16 17 -50 59 -78 94 -107 135 -310 327 -473 447 -268 198 -528
322 -927 442 -99 30 -381 75 -537 85 -80 6 -352 6 -398 1 -19 -3 -67 -7 -106
-11 -39 -3 -80 -7 -90 -9 -11 -2 -39 -7 -64 -11 -25 -4 -83 -16 -129 -26 -47
-11 -92 -21 -100 -23 -63 -12 -212 -61 -357 -117 -260 -101 -600 -309 -824
-504 -81 -70 -331 -327 -402 -412 -85 -102 -226 -297 -278 -385 -19 -32 -37
-58 -40 -57 -3 0 -32 43 -65 95 -33 53 -65 101 -70 107 -6 7 -25 32 -42 57
-139 203 -413 493 -623 660 -388 310 -862 528 -1302 600 -35 5 -74 12 -88 15
-51 9 -138 16 -260 21 -69 3 -132 6 -140 7 -8 1 -67 -1 -131 -4z"/>
</g>
</svg>
